{
  "accessors": [
    {
      "bufferView": 2,
      "componentType": 5126,
      "count": 329,
      "max": [
        1.0,
        5.609557151794434,
        1.8854022026062012
      ],
      "min": [
        -1.0,
        -0.9911645650863647,
        -0.11459773778915405
      ],
      "type": "VEC3"
    },
    {
      "bufferView": 2,
      "byteOffset": 3948,
      "componentType": 5126,
      "count": 329,
      "max": [
        0.9965912103652954,
        0.7132654190063477,
        0.996591329574585
      ],
      "min": [
        -0.9965912103652954,
        -0.8945766091346741,
        -0.996591329574585
      ],
      "type": "VEC3"
    },
    {
      "bufferView": 1,
      "componentType": 5126,
      "count": 329,
      "max": [
        1.0,
        1.0
      ],
      "min": [
        0.0,
        0.01000000536441803
      ],
      "type": "VEC2"
    },
    {
      "bufferView": 0,
      "componentType": 5125,
      "count": 1716,
      "type": "SCALAR"
    },
    {
      "bufferView": 2,
      "byteOffset": 7896,
      "componentType": 5126,
      "count": 1245,
      "max": [
        1.0541318655014038,
        6.722358703613281,
        1.9484946727752686
      ],
      "min": [
        -1.0593135356903076,
        -1.0628981590270996,
        -0.15887987613677979
      ],
      "type": "VEC3"
    },
    {
      "bufferView": 2,
      "byteOffset": 22836,
      "componentType": 5126,
      "count": 1245,
      "max": [
        0.992297887802124,
        0.9992851614952087,
        0.9922979474067688
      ],
      "min": [
        -0.9922979474067688,
        -0.9609790444374084,
        -0.9957782030105591
      ],
      "type": "VEC3"
    },
    {
      "bufferView": 1,
      "byteOffset": 2632,
      "componentType": 5126,
      "count": 1245,
      "max": [
        0.9987601041793823,
        0.6994702816009521
      ],
      "min": [
        0.0010445713996887207,
        0.0
      ],
      "type": "VEC2"
    },
    {
      "bufferView": 0,
      "byteOffset": 6864,
      "componentType": 5125,
      "count": 5652,
      "type": "SCALAR"
    },
    {
      "bufferView": 2,
      "byteOffset": 37776,
      "componentType": 5126,
      "count": 4168,
      "max": [
        0.4739873707294464,
        6.799599647521973,
        1.3790816068649292
      ],
      "min": [
        -0.48978951573371887,
        6.5717692375183105,
        0.4153047502040863
      ],
      "type": "VEC3"
    },
    {
      "bufferView": 2,
      "byteOffset": 87792,
      "componentType": 5126,
      "count": 4168,
      "max": [
        0.99983811378479,
        0.9994726181030273,
        0.9998335838317871
      ],
      "min": [
        -0.9998447299003601,
        -0.9997395873069763,
        -0.9998489022254944
      ],
      "type": "VEC3"
    },
    {
      "bufferView": 1,
      "byteOffset": 12592,
      "componentType": 5126,
      "count": 4168,
      "max": [
        1.0000001192092896,
        0.9899534583091736
      ],
      "min": [
        0.0,
        0.1102939248085022
      ],
      "type": "VEC2"
    },
    {
      "bufferView": 0,
      "byteOffset": 29472,
      "componentType": 5125,
      "count": 17691,
      "type": "SCALAR"
    },
    {
      "bufferView": 2,
      "byteOffset": 137808,
      "componentType": 5126,
      "count": 180,
      "max": [
        1.0705060958862305,
        6.339659690856934,
        2.1545300483703613
      ],
      "min": [
        -0.8049878478050232,
        -1.0296728610992432,
        0.14227044582366943
      ],
      "type": "VEC3"
    },
    {
      "bufferView": 2,
      "byteOffset": 139968,
      "componentType": 5126,
      "count": 180,
      "max": [
        0.9966732859611511,
        0.6413055658340454,
        0.9924508929252625
      ],
      "min": [
        -0.998935341835022,
        -0.6095166206359863,
        -0.9737765192985535
      ],
      "type": "VEC3"
    },
    {
      "bufferView": 1,
      "byteOffset": 45936,
      "componentType": 5126,
      "count": 180,
      "max": [
        0.9375,
        1.0
      ],
      "min": [
        0.34375,
        0.5
      ],
      "type": "VEC2"
    },
    {
      "bufferView": 0,
      "byteOffset": 100236,
      "componentType": 5125,
      "count": 960,
      "type": "SCALAR"
    },
    {
      "bufferView": 2,
      "byteOffset": 142128,
      "componentType": 5126,
      "count": 1245,
      "max": [
        1.1185169219970703,
        6.734167098999023,
        2.2173967361450195
      ],
      "min": [
        -1.0248267650604248,
        -1.0918173789978027,
        -0.04954248666763306
      ],
      "type": "VEC3"
    },
    {
      "bufferView": 2,
      "byteOffset": 157068,
      "componentType": 5126,
      "count": 1245,
      "max": [
        0.9914436340332031,
        0.9999898672103882,
        0.9949706196784973
      ],
      "min": [
        -0.9935492873191833,
        -0.9716591238975525,
        -0.9986709952354431
      ],
      "type": "VEC3"
    },
    {
      "bufferView": 1,
      "byteOffset": 47376,
      "componentType": 5126,
      "count": 1245,
      "max": [
        0.9987601041793823,
        0.6994702816009521
      ],
      "min": [
        0.0010445713996887207,
        0.0
      ],
      "type": "VEC2"
    },
    {
      "bufferView": 0,
      "byteOffset": 104076,
      "componentType": 5125,
      "count": 5652,
      "type": "SCALAR"
    },
    {
      "bufferView": 2,
      "byteOffset": 172008,
      "componentType": 5126,
      "count": 4168,
      "max": [
        0.4662487804889679,
        6.814597129821777,
        1.3491607904434204
      ],
      "min": [
        -0.49748215079307556,
        6.551438331604004,
        0.3861875534057617
      ],
      "type": "VEC3"
    },
    {
      "bufferView": 2,
      "byteOffset": 222024,
      "componentType": 5126,
      "count": 4168,
      "max": [
        0.999732494354248,
        0.9998446106910706,
        0.9988021850585938
      ],
      "min": [
        -0.999838650226593,
        -0.999837338924408,
        -0.9999289512634277
      ],
      "type": "VEC3"
    },
    {
      "bufferView": 1,
      "byteOffset": 57336,
      "componentType": 5126,
      "count": 4168,
      "max": [
        1.0000001192092896,
        0.9899534583091736
      ],
      "min": [
        0.0,
        0.1102939248085022
      ],
      "type": "VEC2"
    },
    {
      "bufferView": 0,
      "byteOffset": 126684,
      "componentType": 5125,
      "count": 17691,
      "type": "SCALAR"
    },
    {
      "bufferView": 2,
      "byteOffset": 272040,
      "componentType": 5126,
      "count": 114,
      "max": [
        0.9575625061988831,
        5.280803203582764,
        0.5559834837913513
      ],
      "min": [
        -0.854547381401062,
        -0.5763964653015137,
        -0.04512631893157959
      ],
      "type": "VEC3"
    },
    {
      "bufferView": 2,
      "byteOffset": 273408,
      "componentType": 5126,
      "count": 114,
      "max": [
        0.8514919281005859,
        0.7576801180839539,
        0.835214376449585
      ],
      "min": [
        -0.8186064958572388,
        -0.7734771966934204,
        -0.7603139281272888
      ],
      "type": "VEC3"
    },
    {
      "bufferView": 1,
      "byteOffset": 90680,
      "componentType": 5126,
      "count": 114,
      "max": [
        0.9779760837554932,
        0.9904840588569641
      ],
      "min": [
        0.04537693038582802,
        0.02738143317401409
      ],
      "type": "VEC2"
    },
    {
      "bufferView": 0,
      "byteOffset": 197448,
      "componentType": 5125,
      "count": 432,
      "type": "SCALAR"
    },
    {
      "bufferView": 2,
      "byteOffset": 274776,
      "componentType": 5126,
      "count": 114,
      "max": [
        2.3477516174316406,
        -1.0805326700210571,
        1.154619812965393
      ],
      "min": [
        -3.077981472015381,
        -2.5588958263397217,
        -3.1056103706359863
      ],
      "type": "VEC3"
    },
    {
      "bufferView": 2,
      "byteOffset": 276144,
      "componentType": 5126,
      "count": 114,
      "max": [
        0.947792112827301,
        0.861734926700592,
        0.9905593991279602
      ],
      "min": [
        -0.9670708775520325,
        -0.9104297161102295,
        -0.9975430965423584
      ],
      "type": "VEC3"
    },
    {
      "bufferView": 1,
      "byteOffset": 91592,
      "componentType": 5126,
      "count": 114,
      "max": [
        0.9779760837554932,
        0.9904840588569641
      ],
      "min": [
        0.04537693038582802,
        0.02738143317401409
      ],
      "type": "VEC2"
    },
    {
      "bufferView": 0,
      "byteOffset": 199176,
      "componentType": 5125,
      "count": 432,
      "type": "SCALAR"
    }
  ],
  "asset": {
    "extras": {
      "author": "MerZZkiY (https://sketchfab.com/REstore)",
      "license": "CC-BY-4.0 (http://creativecommons.org/licenses/by/4.0/)",
      "source": "https://sketchfab.com/3d-models/leninade-d33226e712da4d9a8b103beba5d3093d",
      "title": "Leninade"
    },
    "generator": "Sketchfab-15.53.0",
    "version": "2.0"
  },
  "bufferViews": [
    {
      "buffer": 0,
      "byteLength": 200904,
      "name": "floatBufferViews",
      "target": 34963
    },
    {
      "buffer": 0,
      "byteLength": 92504,
      "byteOffset": 200904,
      "byteStride": 8,
      "name": "floatBufferViews",
      "target": 34962
    },
    {
      "buffer": 0,
      "byteLength": 277512,
      "byteOffset": 293408,
      "byteStride": 12,
      "name": "floatBufferViews",
      "target": 34962
    }
  ],
  "buffers": [
    {
      "byteLength": 570920,
      "uri": "scene.bin"
    }
  ],
  "extensionsUsed": [
    "KHR_materials_specular"
  ],
  "images": [
    {
      "uri": "textures/Material.013_baseColor.png"
    }
  ],
  "materials": [
    {
      "alphaMode": "BLEND",
      "emissiveFactor": [
        0.08139679999999999,
        0.0135376,
        0.0040255399999999985
      ],
      "extensions": {
        "KHR_materials_specular": {
          "specularColorFactor": [
            1.0,
            1.0,
            1.0
          ],
          "specularFactor": 0.13330254488404916
        }
      },
      "name": "Material.002",
      "pbrMetallicRoughness": {
        "baseColorFactor": [
          0.23786975357630558,
          0.013231171235846188,
          0.011610945128067282,
          0.7406035171729057
        ],
        "metallicFactor": 0.0,
        "roughnessFactor": 0.0
      }
    },
    {
      "alphaMode": "BLEND",
      "doubleSided": true,
      "extensions": {
        "KHR_materials_specular": {
          "specularColorFactor": [
            1.0,
            1.0,
            1.0
          ],
          "specularFactor": 0.0
        }
      },
      "name": "Material.001",
      "pbrMetallicRoughness": {
        "baseColorFactor": [
          0.17194927399341048,
          0.15822039735164461,
          0.15822039735164461,
          0.3580039046309261
        ],
        "roughnessFactor": 0.0
      }
    },
    {
      "doubleSided": true,
      "name": "Material.005",
      "pbrMetallicRoughness": {
        "baseColorFactor": [
          0.20196000000000003,
          0.0,
          0.006474980000000002,
          1.0
        ],
        "metallicFactor": 0.0,
        "roughnessFactor": 0.0
      }
    },
    {
      "alphaMode": "BLEND",
      "emissiveFactor": [
        0.08139679999999999,
        0.0135376,
        0.0040255399999999985
      ],
      "name": "Material.015",
      "pbrMetallicRoughness": {
        "baseColorFactor": [
          0.20432405239300486,
          0.008898640346348217,
          0.007649184593333927,
          0.65
        ],
        "metallicFactor": 0.0,
        "roughnessFactor": 0.130909
      }
    },
    {
      "alphaMode": "BLEND",
      "doubleSided": true,
      "name": "Material.014",
      "pbrMetallicRoughness": {
        "baseColorFactor": [
          0.22631762370764183,
          0.22542894067745867,
          0.22542894067745867,
          0.3762229337995918
        ],
        "roughnessFactor": 0.0
      }
    },
    {
      "doubleSided": true,
      "name": "Material.012",
      "pbrMetallicRoughness": {
        "baseColorFactor": [
          0.20196000000000003,
          0.0,
          0.006474980000000002,
          1.0
        ],
        "metallicFactor": 0.0,
        "roughnessFactor": 0.0
      }
    },
    {
      "alphaCutoff": 0.13330254488404916,
      "alphaMode": "MASK",
      "doubleSided": true,
      "name": "Material.013",
      "pbrMetallicRoughness": {
        "baseColorTexture": {
          "index": 0
        },
        "metallicFactor": 0.163636,
        "roughnessFactor": 0.292727
      }
    },
    {
      "alphaCutoff": 0.15759458377560343,
      "alphaMode": "MASK",
      "doubleSided": true,
      "name": "Material.003",
      "pbrMetallicRoughness": {
        "baseColorTexture": {
          "index": 0
        },
        "metallicFactor": 0.163636,
        "roughnessFactor": 0.292727
      }
    }
  ],
  "meshes": [
    {
      "name": "Object_0",
      "primitives": [
        {
          "attributes": {
            "NORMAL": 1,
            "POSITION": 0,
            "TEXCOORD_0": 2
          },
          "indices": 3,
          "material": 0,
          "mode": 4
        }
      ]
    },
    {
      "name": "Object_1",
      "primitives": [
        {
          "attributes": {
            "NORMAL": 5,
            "POSITION": 4,
            "TEXCOORD_0": 6
          },
          "indices": 7,
          "material": 1,
          "mode": 4
        }
      ]
    },
    {
      "name": "Object_2",
      "primitives": [
        {
          "attributes": {
            "NORMAL": 9,
            "POSITION": 8,
            "TEXCOORD_0": 10
          },
          "indices": 11,
          "material": 2,
          "mode": 4
        }
      ]
    },
    {
      "name": "Object_3",
      "primitives": [
        {
          "attributes": {
            "NORMAL": 13,
            "POSITION": 12,
            "TEXCOORD_0": 14
          },
          "indices": 15,
          "material": 3,
          "mode": 4
        }
      ]
    },
    {
      "name": "Object_4",
      "primitives": [
        {
          "attributes": {
            "NORMAL": 17,
            "POSITION": 16,
            "TEXCOORD_0": 18
          },
          "indices": 19,
          "material": 4,
          "mode": 4
        }
      ]
    },
    {
      "name": "Object_5",
      "primitives": [
        {
          "attributes": {
            "NORMAL": 21,
            "POSITION": 20,
            "TEXCOORD_0": 22
          },
          "indices": 23,
          "material": 5,
          "mode": 4
        }
      ]
    },
    {
      "name": "Object_6",
      "primitives": [
        {
          "attributes": {
            "NORMAL": 25,
            "POSITION": 24,
            "TEXCOORD_0": 26
          },
          "indices": 27,
          "material": 6,
          "mode": 4
        }
      ]
    },
    {
      "name": "Object_7",
      "primitives": [
        {
          "attributes": {
            "NORMAL": 29,
            "POSITION": 28,
            "TEXCOORD_0": 30
          },
          "indices": 31,
          "material": 7,
          "mode": 4
        }
      ]
    }
  ],
  "nodes": [
    {
      "children": [
        1
      ],
      "matrix": [
        1.0,
        0.0,
        0.0,
        0.0,
        0.0,
        2.220446049250313e-16,
        -1.0,
        0.0,
        0.0,
        1.0,
        2.220446049250313e-16,
        0.0,
        0.0,
        0.0,
        0.0,
        1.0
      ],
      "name": "Sketchfab_model"
    },
    {
      "children": [
        2
      ],
      "name": "root"
    },
    {
      "children": [
        3,
        7,
        11
      ],
      "matrix": [
        1.0,
        0.0,
        0.0,
        0.0,
        0.0,
        2.220446049250313e-16,
        1.0,
        0.0,
        0.0,
        -1.0,
        2.220446049250313e-16,
        0.0,
        0.0,
        0.0,
        0.0,
        1.0
      ],
      "name": "GLTF_SceneRootNode"
    },
    {
      "children": [
        4,
        5,
        6
      ],
      "matrix": [
        -0.5750160686365542,
        -0.004839377720445399,
        -0.15020785246226517,
        0.0,
        0.0012708232830768525,
        0.5938449989566924,
        -0.023997307773381042,
        0.0,
        0.1502804313822404,
        -0.023538610638026317,
        -0.5745355466033936,
        0.0,
        -2.911125421524048,
        -6.151940822601318,
        -4.15259313583374,
        1.0
      ],
      "name": "napitok_0"
    },
    {
      "mesh": 0,
      "name": "Object_4"
    },
    {
      "mesh": 1,
      "name": "Object_5"
    },
    {
      "mesh": 2,
      "name": "Object_6"
    },
    {
      "children": [
        8,
        9,
        10
      ],
      "matrix": [
        0.34184876079260884,
        -0.4750469089373852,
        0.10343672830227504,
        0.0,
        -0.24340678134287205,
        -0.057771164651203605,
        0.5391150154551513,
        0.0,
        -0.42085853758637776,
        -0.3524517699455487,
        -0.2277832517130412,
        0.0,
        -3.6777560710906982,
        -5.543826580047607,
        -3.5565590858459473,
        1.0
      ],
      "name": "napitok.002_1"
    },
    {
      "mesh": 3,
      "name": "Object_8"
    },
    {
      "mesh": 4,
      "name": "Object_9"
    },
    {
      "mesh": 5,
      "name": "Object_10"
    },
    {
      "children": [
        12,
        13
      ],
      "matrix": [
        0.34184876079260884,
        -0.4750469089373852,
        0.10343672830227504,
        0.0,
        -0.24340678134287205,
        -0.057771164651203605,
        0.5391150154551513,
        0.0,
        -0.42085853758637776,
        -0.3524517699455487,
        -0.2277832517130412,
        0.0,
        -3.6777560710906982,
        -5.543826580047607,
        -3.5565590858459473,
        1.0
      ],
      "name": "napitok.003_2"
    },
    {
      "mesh": 6,
      "name": "Object_12"
    },
    {
      "mesh": 7,
      "name": "Object_13"
    }
  ],
  "samplers": [
    {
      "magFilter": 9729,
      "minFilter": 9987,
      "wrapS": 10497,
      "wrapT": 10497
    }
  ],
  "scene": 0,
  "scenes": [
    {
      "name": "Sketchfab_Scene",
      "nodes": [
        0
      ]
    }
  ],
  "textures": [
    {
      "sampler": 0,
      "source": 0
    }
  ]
}
